<svg width="3812" height="930" viewBox="0 0 3812 930" fill="none" xmlns="http://www.w3.org/2000/svg">
<mask id="mask0_6_66" style="mask-type:luminance" maskUnits="userSpaceOnUse" x="412" y="218" width="612" height="495">
<path fill-rule="evenodd" clip-rule="evenodd" d="M412 464.657C412 600.313 522.968 711.281 658.633 711.281H708.111L666.656 637.613H658.633C563.64 637.613 485.676 559.649 485.676 464.657V291.676H777.031C872.032 291.676 949.996 369.632 949.996 464.633V637.613H920.149L961.873 711.281H1018.73C1021.45 711.281 1023.66 709.081 1023.66 706.36V464.633C1023.66 328.977 912.695 218 777.031 218H416.922C414.208 218 412 220.208 412 222.922V464.657ZM880.229 712.128L801.885 573.813C846.236 560.963 878.9 519.888 878.9 471.541C878.9 413.01 831.004 365.114 772.465 365.114H555.545V439.106H772.465C790.158 439.106 804.9 453.848 804.9 471.541C804.9 489.242 790.158 503.983 772.465 503.983H678.494L685.726 516.904H685.014L794.858 712.128H880.229Z" fill="white"/>
</mask>
<g mask="url(#mask0_6_66)">
<path d="M412 464.657C412 600.313 522.968 711.281 658.633 711.281H708.111L666.656 637.613H658.633C563.64 637.613 485.676 559.649 485.676 464.657V291.676H777.031C872.032 291.676 949.996 369.632 949.996 464.633V637.613H920.149L961.873 711.281H1018.73C1021.45 711.281 1023.66 709.081 1023.66 706.36V464.633C1023.66 328.977 912.695 218 777.031 218H416.922C414.208 218 412 220.208 412 222.922V464.657ZM880.229 712.128L801.885 573.813C846.236 560.963 878.9 519.888 878.9 471.541C878.9 413.01 831.004 365.114 772.465 365.114H555.545V439.106H772.465C790.158 439.106 804.9 453.848 804.9 471.541C804.9 489.242 790.158 503.983 772.465 503.983H678.494L685.726 516.904H685.014L794.858 712.128H880.229Z" fill="url(#paint0_linear_6_66)"/>
</g>
<path d="M1385.95 600.132L1319.96 503.651C1337.2 497.226 1351.16 487.122 1361.83 473.362C1372.51 459.593 1377.85 441.782 1377.85 419.911V419.136C1377.85 391.093 1368.9 369.23 1351.03 353.531C1333.15 337.84 1308.13 329.99 1275.97 329.99H1152.48V600.132H1211.91V513.685H1258.6L1316.48 600.132H1385.95ZM1317.65 422.997C1317.65 434.573 1313.72 443.839 1305.87 450.787C1298.03 457.726 1286.77 461.2 1272.11 461.2H1211.91V383.631H1270.95C1285.62 383.631 1297.06 386.851 1305.29 393.284C1313.53 399.718 1317.65 409.363 1317.65 422.221V422.997ZM1706.65 465.061V464.286C1706.65 444.994 1703.12 426.914 1696.04 410.068C1688.97 393.213 1679.06 378.551 1666.33 366.073C1653.59 353.594 1638.48 343.687 1620.98 336.36C1603.49 329.025 1584.31 325.362 1563.47 325.362C1542.64 325.362 1523.4 329.025 1505.78 336.36C1488.16 343.687 1472.98 353.721 1460.24 366.46C1447.51 379.192 1437.54 393.989 1430.33 410.843C1423.13 427.689 1419.53 445.77 1419.53 465.061V465.837C1419.53 485.128 1423.07 503.201 1430.14 520.055C1437.22 536.909 1447.12 551.571 1459.86 564.05C1472.59 576.528 1487.71 586.435 1505.2 593.762C1522.7 601.097 1541.86 604.769 1562.7 604.769C1583.55 604.769 1602.77 601.097 1620.4 593.762C1638.03 586.435 1653.2 576.401 1665.94 563.662C1678.67 550.93 1688.64 536.141 1695.84 519.287C1703.05 502.433 1706.65 484.352 1706.65 465.061ZM1644.52 465.837C1644.52 477.413 1642.53 488.277 1638.54 498.445C1634.55 508.605 1629.02 517.546 1621.95 525.269C1614.87 532.984 1606.32 539.029 1596.29 543.405C1586.24 547.781 1575.32 549.965 1563.47 549.965C1551.38 549.965 1540.38 547.71 1530.48 543.207C1520.58 538.713 1511.96 532.596 1504.62 524.881C1497.29 517.159 1491.63 508.154 1487.64 497.859C1483.66 487.573 1481.66 476.638 1481.66 465.061V464.286C1481.66 452.717 1483.66 441.837 1487.64 431.677C1491.63 421.517 1497.16 412.576 1504.24 404.861C1511.31 397.138 1519.8 391.093 1529.71 386.725C1539.61 382.349 1550.61 380.157 1562.7 380.157C1574.54 380.157 1585.48 382.412 1595.51 386.915C1605.54 391.417 1614.22 397.526 1621.56 405.241C1628.89 412.964 1634.55 421.968 1638.54 432.255C1642.53 442.549 1644.52 453.485 1644.52 465.061V465.837ZM2022.73 600.132L1906.95 328.06H1852.14L1736.37 600.132H1796.96L1821.66 539.544H1935.89L1960.59 600.132H2022.73ZM1914.66 487.066H1842.89L1878.77 399.456L1914.66 487.066ZM2313.32 465.061V464.286C2313.32 445.255 2309.84 427.563 2302.89 411.231C2295.95 394.891 2286.11 380.672 2273.37 368.581C2260.64 356.49 2245.46 347.035 2227.84 340.214C2210.21 333.401 2190.85 329.99 2169.75 329.99H2064.4V600.132H2169.75C2190.85 600.132 2210.21 596.658 2227.84 589.718C2245.46 582.763 2260.64 573.244 2273.37 561.154C2286.11 549.063 2295.95 534.788 2302.89 518.322C2309.84 501.855 2313.32 484.099 2313.32 465.061ZM2251.18 465.837C2251.18 477.927 2249.19 488.863 2245.2 498.635C2241.21 508.415 2235.68 516.905 2228.61 524.106C2221.54 531.315 2212.98 536.846 2202.94 540.699C2192.91 544.56 2181.84 546.491 2169.75 546.491H2123.83V383.631H2169.75C2181.84 383.631 2192.91 385.625 2202.94 389.613C2212.98 393.601 2221.54 399.195 2228.61 406.404C2235.68 413.604 2241.21 422.221 2245.2 432.255C2249.19 442.288 2251.18 453.232 2251.18 465.061V465.837ZM2603.53 557.3L2583.46 537.613C2570.6 549.965 2557.48 559.547 2544.11 566.368C2530.73 573.189 2514.77 576.591 2496.25 576.591C2481.33 576.591 2467.5 573.695 2454.76 567.911C2442.02 562.119 2430.96 554.214 2421.57 544.181C2412.18 534.139 2404.85 522.31 2399.57 508.668C2394.3 495.035 2391.66 480.364 2391.66 464.673C2391.66 448.982 2394.3 434.383 2399.57 420.876C2404.85 407.369 2412.18 395.595 2421.57 385.562C2430.96 375.528 2442.02 367.679 2454.76 362.021C2467.5 356.364 2481.33 353.531 2496.25 353.531C2514.77 353.531 2530.65 357.005 2543.91 363.952C2557.16 370.892 2569.57 379.777 2581.15 390.578L2601.99 368.193C2595.29 361.768 2588.35 355.913 2581.15 350.635C2573.95 345.365 2566.1 340.862 2557.61 337.128C2549.12 333.401 2539.92 330.505 2530.01 328.439C2520.11 326.39 2508.98 325.362 2496.63 325.362C2476.82 325.362 2458.55 329.025 2441.83 336.36C2425.11 343.687 2410.71 353.721 2398.61 366.46C2386.52 379.192 2377.06 394.052 2370.25 411.033C2363.43 428.014 2360.02 446.15 2360.02 465.449C2360.02 485.001 2363.43 503.272 2370.25 520.245C2377.06 537.233 2386.52 551.959 2398.61 564.437C2410.71 576.916 2424.98 586.751 2441.45 593.96C2457.91 601.16 2475.92 604.769 2495.47 604.769C2507.83 604.769 2519.02 603.605 2529.05 601.295C2539.08 598.977 2548.47 595.764 2557.22 591.641C2565.97 587.527 2574.14 582.573 2581.72 576.789C2589.32 570.997 2596.58 564.501 2603.53 557.3ZM2785.3 328.06H2756.75L2633.63 600.132H2664.89L2696.93 528.735H2843.96L2875.6 600.132H2908.41L2785.3 328.06ZM2832 501.729H2708.89L2770.63 363.952L2832 501.729ZM2979.8 397.209C2979.8 391.029 2981.16 385.245 2983.86 379.841C2986.56 374.436 2990.42 369.736 2995.43 365.883C3000.45 362.021 3006.5 358.935 3013.57 356.617C3020.64 354.306 3028.56 353.143 3037.31 353.143C3051.2 353.143 3064.51 355.462 3077.25 360.09C3089.98 364.719 3102.65 372.189 3115.26 382.476L3133.01 358.935C3119.12 348 3104.78 339.771 3089.98 334.295C3075.19 328.835 3057.89 326.129 3038.08 326.129C3025.22 326.129 3013.37 327.996 3002.57 331.723C2991.77 335.458 2982.37 340.601 2974.4 347.224C2966.43 353.792 2960.25 361.57 2955.88 370.575C2951.5 379.58 2949.32 389.558 2949.32 400.351C2949.32 411.682 2951.11 421.454 2954.72 429.691C2958.32 437.984 2963.91 445.184 2971.38 451.364C2978.83 457.536 2988.3 462.814 2999.81 467.182C3011.25 471.557 3024.76 475.482 3040.2 478.829C3054.42 481.915 3066.06 485.128 3075.25 488.475C3084.39 491.822 3091.53 495.549 3096.67 499.672C3101.88 503.778 3105.48 508.344 3107.54 513.368C3109.6 518.448 3110.63 524.177 3110.63 530.602C3110.63 544.497 3105.16 555.686 3094.22 564.247C3083.29 572.738 3068.69 576.979 3050.43 576.979C3031.64 576.979 3015.05 573.83 3000.64 567.523C2986.23 561.217 2971.96 551.642 2957.8 538.776L2938.9 561.154C2955.1 575.761 2972.15 586.561 2990.03 593.509C3007.91 600.519 3027.65 603.993 3049.27 603.993C3062.64 603.993 3075 602.189 3086.32 598.589C3097.64 594.989 3107.28 589.845 3115.33 583.088C3123.36 576.401 3129.67 568.291 3134.23 558.772C3138.81 549.261 3141.12 538.642 3141.12 527.065C3141.12 506.223 3133.98 489.828 3119.7 477.99C3105.41 466.153 3083.23 456.824 3053.13 450.138C3038.2 447.052 3025.99 443.768 3016.47 440.302C3006.95 436.828 2999.49 432.967 2994.08 428.726C2988.68 424.477 2984.95 419.776 2982.89 414.57C2980.83 409.427 2979.8 403.634 2979.8 397.209ZM3398.53 329.99H3203.25V600.132H3400.46V572.35H3233.73V477.793H3381.16V450.011H3233.73V357.78H3398.53V329.99Z" fill="white"/>
<defs>
<linearGradient id="paint0_linear_6_66" x1="283.122" y1="785.447" x2="1004.65" y2="376.517" gradientUnits="userSpaceOnUse">
<stop stop-color="#3C51AB"/>
<stop offset="1" stop-color="#8A61B7"/>
</linearGradient>
</defs>
</svg>
